<svg xmlns="http://www.w3.org/2000/svg" width="24" height="24" viewBox="0 0 24 24">
    <path fill-opacity=".7" d="M17.803 8.747v10.339c0 .774-.658 1.414-1.453 1.414h-8.7c-.795 0-1.453-.64-1.453-1.414V8.746h11.606zm-4.145 2.518c-.458 0-.83.29-.83.647v5.423c0 .357.372.646.83.646.458 0 .829-.289.829-.646v-5.423c0-.358-.371-.647-.83-.647zm-3.316 0c-.458 0-.829.29-.829.647v5.423c0 .357.371.646.83.646.457 0 .828-.289.828-.646v-5.423c0-.358-.37-.647-.829-.647zM12.501 3.5c.795 0 1.451.651 1.451 1.44h3.63c.812 0 1.451.65 1.417 1.438v.206c0 .154-.121.274-.277.274H5.277c-.156 0-.277-.12-.277-.274v-.206c0-.788.657-1.439 1.452-1.439h3.629c0-.788.657-1.439 1.452-1.439z"/>
</svg>
