<svg xmlns="http://www.w3.org/2000/svg" width="24" height="24" viewBox="0 0 24 24">
    <g fill="none" transform="translate(3 3)">
        <rect width="18" height="18" fill="#FE5B3B" rx="9"/>
        <path fill="#FFF" d="M5.243 11.554l2.546-2.562-2.546-2.546c-.324-.324-.324-.864 0-1.203.34-.324.88-.324 1.203 0l2.546 2.546 2.562-2.546c.324-.324.864-.324 1.203 0 .324.34.324.88 0 1.203l-2.561 2.546 2.561 2.562c.324.324.324.864 0 1.203-.34.324-.88.324-1.203 0l-2.562-2.561-2.546 2.561c-.324.324-.864.324-1.203 0-.324-.34-.324-.88 0-1.203z"/>
    </g>
</svg>
